<svg width="125" height="53" viewBox="0 0 125 53" fill="none" xmlns="http://www.w3.org/2000/svg">
<path d="M32.2951 52.0277L15.7952 20.9673L46.0783 19.67L32.2951 52.0277Z" fill="#D9D9D9"/>
<path d="M25.043 44.3418L4.26649 16.4L34.0373 10.7039L25.043 44.3418Z" fill="#28AE60"/>
<path d="M56.3636 38H51.4347V23.4545H56.4631C57.9072 23.4545 59.1477 23.7457 60.1847 24.3281C61.2263 24.9058 62.0265 25.7367 62.5852 26.821C63.1439 27.9053 63.4233 29.2027 63.4233 30.7131C63.4233 32.2282 63.1416 33.5303 62.5781 34.6193C62.0194 35.7083 61.2121 36.544 60.1562 37.1264C59.1051 37.7088 57.8409 38 56.3636 38ZM54.0696 35.7202H56.2358C57.2491 35.7202 58.0942 35.5355 58.7713 35.1662C59.4484 34.7921 59.9574 34.2358 60.2983 33.4972C60.6392 32.7538 60.8097 31.8258 60.8097 30.7131C60.8097 29.6004 60.6392 28.6771 60.2983 27.9432C59.9574 27.2045 59.4531 26.6529 58.7855 26.2884C58.1226 25.919 57.2988 25.7344 56.3139 25.7344H54.0696V35.7202ZM64.6431 25.6634V23.4545H76.2482V25.6634H71.7525V38H69.1388V25.6634H64.6431ZM77.8462 25.6634V23.4545H89.4513V25.6634H84.9556V38H82.342V25.6634H77.8462ZM94.8224 38.2131C93.7287 38.2131 92.7841 37.9858 91.9886 37.5312C91.1979 37.072 90.5895 36.4233 90.1634 35.5852C89.7372 34.7424 89.5241 33.7505 89.5241 32.6094C89.5241 31.4872 89.7372 30.5024 90.1634 29.6548C90.5942 28.8026 91.1955 28.1397 91.9673 27.6662C92.7391 27.188 93.6458 26.9489 94.6875 26.9489C95.3598 26.9489 95.9943 27.0578 96.5909 27.2756C97.1922 27.4886 97.7225 27.8201 98.1818 28.2699C98.6458 28.7197 99.0104 29.2926 99.2756 29.9886C99.5407 30.6799 99.6733 31.5038 99.6733 32.4602V33.2486H90.7315V31.5156H97.2088C97.2041 31.0232 97.0975 30.5852 96.8892 30.2017C96.6809 29.8134 96.3897 29.508 96.0156 29.2855C95.6463 29.063 95.2154 28.9517 94.723 28.9517C94.1974 28.9517 93.7358 29.0795 93.3381 29.3352C92.9403 29.5862 92.6302 29.9176 92.4077 30.3295C92.1899 30.7367 92.0786 31.1842 92.0739 31.6719V33.1847C92.0739 33.8191 92.1899 34.3636 92.4219 34.8182C92.6539 35.268 92.9782 35.6136 93.3949 35.8551C93.8116 36.0919 94.2992 36.2102 94.858 36.2102C95.232 36.2102 95.5705 36.1581 95.8736 36.054C96.1766 35.9451 96.4394 35.7865 96.6619 35.5781C96.8845 35.3698 97.0526 35.1117 97.1662 34.804L99.5668 35.0739C99.4152 35.7083 99.1264 36.2623 98.7003 36.7358C98.2789 37.2045 97.7391 37.5691 97.081 37.8295C96.4228 38.0852 95.67 38.2131 94.8224 38.2131ZM106.607 38.2131C105.518 38.2131 104.583 37.974 103.801 37.4957C103.025 37.0175 102.426 36.357 102.005 35.5142C101.588 34.6667 101.38 33.6913 101.38 32.5881C101.38 31.4801 101.593 30.5024 102.019 29.6548C102.445 28.8026 103.046 28.1397 103.823 27.6662C104.604 27.188 105.527 26.9489 106.593 26.9489C107.478 26.9489 108.262 27.1122 108.944 27.4389C109.63 27.7609 110.177 28.2178 110.584 28.8097C110.991 29.3968 111.223 30.0833 111.28 30.8693H108.823C108.723 30.3437 108.487 29.9058 108.113 29.5554C107.743 29.2003 107.248 29.0227 106.628 29.0227C106.103 29.0227 105.641 29.1648 105.243 29.4489C104.846 29.7282 104.535 30.1307 104.313 30.6562C104.095 31.1818 103.986 31.8116 103.986 32.5455C103.986 33.2888 104.095 33.928 104.313 34.4631C104.531 34.9934 104.836 35.4029 105.229 35.6918C105.627 35.9759 106.093 36.1179 106.628 36.1179C107.007 36.1179 107.346 36.0469 107.644 35.9048C107.947 35.758 108.2 35.5473 108.404 35.2727C108.607 34.9981 108.747 34.6643 108.823 34.2713H111.28C111.219 35.0431 110.991 35.7273 110.598 36.3239C110.205 36.9157 109.67 37.3797 108.993 37.7159C108.316 38.0473 107.521 38.2131 106.607 38.2131ZM115.962 31.608V38H113.391V23.4545H115.906V28.9446H116.033C116.289 28.3291 116.684 27.8437 117.219 27.4886C117.759 27.1288 118.446 26.9489 119.279 26.9489C120.037 26.9489 120.697 27.1075 121.261 27.4247C121.824 27.742 122.26 28.206 122.567 28.8168C122.88 29.4276 123.036 30.1733 123.036 31.054V38H120.465V31.4517C120.465 30.7178 120.276 30.1473 119.897 29.7401C119.523 29.3281 118.997 29.1222 118.32 29.1222C117.866 29.1222 117.459 29.2216 117.099 29.4205C116.744 29.6146 116.464 29.8963 116.261 30.2656C116.062 30.6349 115.962 31.0824 115.962 31.608Z" fill="white"/>
</svg>
